<?xml version="1.0" encoding="UTF-8" standalone="no"?>
<svg width="282px" height="282px" viewBox="0 0 282 282" version="1.1" xmlns="http://www.w3.org/2000/svg" xmlns:xlink="http://www.w3.org/1999/xlink" xmlns:sketch="http://www.bohemiancoding.com/sketch/ns">
    <!-- Generator: Sketch 3.2.2 (9983) - http://www.bohemiancoding.com/sketch -->
    <title>Scalability-fixed_radius 2</title>
    <desc>Created with Sketch.</desc>
    <defs>
        <path id="path-1" d="M141,282 C218.87215,282 282,218.87215 282,141 C282,63.1278503 218.87215,0 141,0 C63.1278503,0 0,63.1278503 0,141 C0,218.87215 63.1278503,282 141,282 Z"></path>
        <path id="path-3" d="M84,39.8136593 C84,39.8136593 73.4600761,36.348572 71.6942257,29.5655237 C69.9283752,22.7824755 70.4518952,0 70.4518952,0 L13.5481048,0 C13.5481048,0 14.0716248,22.7824755 12.3057743,29.5655237 C10.5399239,36.348572 7.10542736e-15,39.8136593 7.10542736e-15,39.8136593 L42,64 L84,39.8136593 Z"></path>
    </defs>
    <g id="Page-1" stroke="none" stroke-width="1" fill="none" fill-rule="evenodd" sketch:type="MSPage">
        <g id="Scalability-fixed_radius-2" sketch:type="MSArtboardGroup">
            <g id="Icon" sketch:type="MSLayerGroup">
                <mask id="mask-2" sketch:name="bg" fill="white">
                    <use xlink:href="#path-1"></use>
                </mask>
                <use id="bg" fill="#7FD2EF" sketch:type="MSShapeGroup" xlink:href="#path-1"></use>
                <g id="Pied" mask="url(#mask-2)">
                    <g transform="translate(100.000000, 241.000000)">
                        <mask id="mask-4" sketch:name="Path 2" fill="white">
                            <use xlink:href="#path-3"></use>
                        </mask>
                        <use id="Path-2" stroke="none" fill="#EDEEF3" fill-rule="evenodd" sketch:type="MSShapeGroup" xlink:href="#path-3"></use>
                        <rect id="Rectangle-6" stroke="none" fill="#CBD4D8" fill-rule="evenodd" sketch:type="MSShapeGroup" mask="url(#mask-4)" x="8" y="-2" width="65" height="9"></rect>
                    </g>
                </g>
                <g id="Main" transform="translate(0.000000, 36.769231)" sketch:type="MSShapeGroup">
                    <g id="Screen-2">
                        <g id="Base">
                            <path d="M9.9950744,0.230769231 L272.004926,0.230769231 C277.525053,0.230769231 282,4.71369855 282,10.2294668 L282,176.230769 L0,176.230769 L0,10.2294668 C0,4.70733863 4.48648483,0.230769231 9.9950744,0.230769231 Z" id="Haut-ecran" fill="#2A414E"></path>
                            <rect id="Rectangle-23" fill="#314D5C" x="12" y="13" width="258" height="152"></rect>
                            <path d="M282,176.230769 L282,194.240711 C282,199.758068 277.513515,204.230769 272.004926,204.230769 L9.9950744,204.230769 C4.47494724,204.230769 0,199.763125 0,194.240711 L0,176.230769 L282,176.230769 Z" id="Rectangle-24" fill="#EDEEF3"></path>
                        </g>
                        <g id="Inside-screen" transform="translate(33.000000, 37.000000)">
                            <g id="graph" transform="translate(31.000000, 2.000000)">
                                <path d="M9.59067732,88.3956778 L49.9616999,54.9608671 L105.189289,47.7171522 L145.649348,13.7801767" id="Path-3" stroke="#446373" stroke-width="6.02564103"></path>
                                <g id="round-small" transform="translate(0.000000, 79.230769)">
                                    <circle id="Oval-11" fill="#7FD2EF" cx="9" cy="9" r="9"></circle>
                                    <circle id="Oval-12" fill="#FFFFFF" cx="9" cy="9" r="3"></circle>
                                </g>
                                <g id="round-small-2" transform="translate(41.072200, 46.379488)">
                                    <circle id="Oval-11" fill="#7FD2EF" cx="9" cy="9" r="9"></circle>
                                    <circle id="Oval-12" fill="#FFFFFF" cx="9" cy="9" r="3"></circle>
                                </g>
                                <g id="round-small-3" transform="translate(96.072200, 38.379488)">
                                    <circle id="Oval-11" fill="#7FD2EF" cx="9" cy="9" r="9"></circle>
                                    <circle id="Oval-12" fill="#FFFFFF" cx="9" cy="9" r="3"></circle>
                                </g>
                                <g id="round-small-4" transform="translate(130.632456, 0.439744)">
                                    <circle id="Oval-11" fill="#7FD2EF" cx="14.2882593" cy="13.7117407" r="13.7117407"></circle>
                                    <circle id="Oval-12" fill="#FFFFFF" cx="14.367544" cy="13.7910255" r="5.22434198"></circle>
                                </g>
                            </g>
                            <g id="legend-left" transform="translate(0.333333, 0.564103)" fill="#436373">
                                <path d="M0.666666667,3.44871795 C0.666666667,1.78478313 2.01897592,0.435897436 3.6793664,0.435897436 L82.6539669,0.435897436 C84.3178351,0.435897436 85.6666667,1.7881689 85.6666667,3.44871795 C85.6666667,5.11265277 84.3143574,6.46153846 82.6539669,6.46153846 L3.6793664,6.46153846 C2.01549828,6.46153846 0.666666667,5.109267 0.666666667,3.44871795 Z M0.666666667,18.4487179 C0.666666667,16.7847831 2.01698278,15.4358974 3.68179063,15.4358974 L47.6515427,15.4358974 C49.3167497,15.4358974 50.6666667,16.7881689 50.6666667,18.4487179 C50.6666667,20.1126528 49.3163506,21.4615385 47.6515427,21.4615385 L3.68179063,21.4615385 C2.01658364,21.4615385 0.666666667,20.109267 0.666666667,18.4487179 Z M56.6666667,18.4487179 C56.6666667,16.7847831 58.0237576,15.4358974 59.6797241,15.4358974 L61.6536092,15.4358974 C63.3176749,15.4358974 64.6666667,16.7881689 64.6666667,18.4487179 C64.6666667,20.1126528 63.3095757,21.4615385 61.6536092,21.4615385 L59.6797241,21.4615385 C58.0156584,21.4615385 56.6666667,20.109267 56.6666667,18.4487179 Z" id="Rectangle-13"></path>
                            </g>
                            <g id="legend-right" transform="translate(137.333333, 81.564103)">
                                <path d="M24.6666667,3.44871795 C24.6666667,1.78478313 26.0172928,0.435897436 27.6887188,0.435897436 L74.6702556,0.435897436 C76.3392889,0.435897436 77.6923077,1.7881689 77.6923077,3.44871795 C77.6923077,5.11265277 76.3416816,6.46153846 74.6702556,6.46153846 L27.6887188,6.46153846 C26.0196855,6.46153846 24.6666667,5.109267 24.6666667,3.44871795 Z M55.6936572,18.4230769 C55.6936572,16.7591421 57.0507482,15.4102564 58.7067146,15.4102564 L60.6805998,15.4102564 C62.3446655,15.4102564 63.6936572,16.7625279 63.6936572,18.4230769 C63.6936572,20.0870117 62.3365663,21.4358974 60.6805998,21.4358974 L58.7067146,21.4358974 C57.042649,21.4358974 55.6936572,20.083626 55.6936572,18.4230769 Z M24.6666667,18.4487179 C24.6666667,16.7847831 26.0107752,15.4358974 27.6822508,15.4358974 L46.6510825,15.4358974 C48.3165437,15.4358974 49.6666667,16.7881689 49.6666667,18.4487179 C49.6666667,20.1126528 48.3225581,21.4615385 46.6510825,21.4615385 L27.6822508,21.4615385 C26.0167897,21.4615385 24.6666667,20.109267 24.6666667,18.4487179 Z" id="Rectangle-24" fill="#436373"></path>
                                <rect id="Rectangle-12" fill="#7FD2EF" x="0.666666667" y="4.43589744" width="13" height="13" rx="3.61538462"></rect>
                            </g>
                        </g>
                    </g>
                </g>
            </g>
        </g>
    </g>
</svg>