<?xml version="1.0" encoding="UTF-8" standalone="no"?>
<svg width="280px" height="280px" viewBox="0 0 280 280" version="1.1" xmlns="http://www.w3.org/2000/svg" xmlns:xlink="http://www.w3.org/1999/xlink">
    <!-- Generator: Sketch 3.8.3 (29802) - http://www.bohemiancoding.com/sketch -->
    <title>db</title>
    <desc>Created with Sketch.</desc>
    <defs>
        <path d="M140,280 C217.319865,280 280,217.319865 280,140 C280,62.680135 217.319865,0 140,0 C62.680135,0 0,62.680135 0,140 C0,217.319865 62.680135,280 140,280 Z" id="path-1"></path>
    </defs>
    <g id="Page-1" stroke="none" stroke-width="1" fill="none" fill-rule="evenodd">
        <g id="moomoo" transform="translate(-580.000000, -1039.000000)">
            <g id="post" transform="translate(400.000000, 1039.000000)">
                <g id="db" transform="translate(180.000000, 0.000000)">
                    <mask id="mask-2" fill="white">
                        <use xlink:href="#path-1"></use>
                    </mask>
                    <use id="bg" fill="#E8766B" xlink:href="#path-1"></use>
                    <path d="M31.1351351,257.668415 C9.80760219,253.639365 -6.32432432,234.894333 -6.32432432,212.378453 C-6.32432432,186.923008 14.294778,166.287293 39.7297297,166.287293 C41.0340538,166.287293 42.3257135,166.341559 43.6025778,166.447958 C48.5873998,151.499572 62.6849484,140.723757 79.2972973,140.723757 C81.4126705,140.723757 83.4872667,140.898485 85.5074627,141.234306 C95.2941652,127.763212 111.165713,119.005525 129.081081,119.005525 C150.398355,119.005525 168.821922,131.404943 177.543942,149.390454 C185.084457,142.750697 194.977742,138.723757 205.810811,138.723757 C224.365582,138.723757 240.163354,150.537386 246.104273,167.05907 C266.202351,172.012612 281.108108,190.171649 281.108108,211.814917 C281.108108,237.270362 260.489006,257.906077 235.054054,257.906077 C217.594481,257.906077 202.404136,248.182525 194.594595,233.851113 L194.594595,280 L31.1351351,280 L31.1351351,257.668415 Z" id="clouds_back" fill="#FFFFFF" mask="url(#mask-2)"></path>
                    <g id="server" mask="url(#mask-2)">
                        <g transform="translate(79.000000, 41.000000)">
                            <rect id="bg" fill="#2A414E" x="7" y="19" width="108" height="193"></rect>
                            <g id="rack" stroke-width="1" fill="none">
                                <rect id="Rectangle-6" fill="#314D5C" x="0" y="0" width="121.945946" height="38.9502762" rx="2"></rect>
                                <path d="M15.5,25 C18.5375661,25 21,22.5375661 21,19.5 C21,16.4624339 18.5375661,14 15.5,14 C12.4624339,14 10,16.4624339 10,19.5 C10,22.5375661 12.4624339,25 15.5,25 Z" id="Oval-14" fill="#7FD2EF"></path>
                                <circle id="Oval-15" fill="#496574" cx="27.5" cy="19.5" r="2.5"></circle>
                                <rect id="Rectangle-5" fill="#496574" x="36" y="13" width="76" height="13"></rect>
                            </g>
                            <g id="rack-copy" stroke-width="1" fill="none" transform="translate(0.000000, 44.000000)">
                                <rect id="Rectangle-6" fill="#314D5C" x="0" y="0" width="121.945946" height="38.9502762" rx="2"></rect>
                                <path d="M15.5,25 C18.5375661,25 21,22.5375661 21,19.5 C21,16.4624339 18.5375661,14 15.5,14 C12.4624339,14 10,16.4624339 10,19.5 C10,22.5375661 12.4624339,25 15.5,25 Z" id="Oval-14" fill="#D1C4E9"></path>
                                <circle id="Oval-15" fill="#496574" cx="27.5" cy="19.5" r="2.5"></circle>
                                <rect id="Rectangle-5" fill="#496574" x="36" y="13" width="76" height="13"></rect>
                            </g>
                            <g id="rack-copy-2" stroke-width="1" fill="none" transform="translate(0.000000, 88.000000)">
                                <rect id="Rectangle-6" fill="#314D5C" x="0" y="0" width="121.945946" height="38.9502762" rx="2"></rect>
                                <path d="M15.5,25 C18.5375661,25 21,22.5375661 21,19.5 C21,16.4624339 18.5375661,14 15.5,14 C12.4624339,14 10,16.4624339 10,19.5 C10,22.5375661 12.4624339,25 15.5,25 Z" id="Oval-14" fill="#C8E6C9"></path>
                                <circle id="Oval-15" fill="#496574" cx="27.5" cy="19.5" r="2.5"></circle>
                                <rect id="Rectangle-5" fill="#496574" x="36" y="13" width="76" height="13"></rect>
                            </g>
                            <g id="rack-copy-3" stroke-width="1" fill="none" transform="translate(0.000000, 132.000000)">
                                <rect id="Rectangle-6" fill="#314D5C" x="0" y="0" width="121.945946" height="38.9502762" rx="2"></rect>
                                <path d="M15.5,25 C18.5375661,25 21,22.5375661 21,19.5 C21,16.4624339 18.5375661,14 15.5,14 C12.4624339,14 10,16.4624339 10,19.5 C10,22.5375661 12.4624339,25 15.5,25 Z" id="Oval-14" fill="#F8BBD0"></path>
                                <circle id="Oval-15" fill="#496574" cx="27.5" cy="19.5" r="2.5"></circle>
                                <rect id="Rectangle-5" fill="#496574" x="36" y="13" width="76" height="13"></rect>
                            </g>
                        </g>
                    </g>
                    <path d="M198.235157,235.932223 C197.531548,232.520124 194.510257,229.954815 190.889807,229.954815 C188.901716,229.954815 187.094298,230.728362 185.752112,231.990895 C183.625862,226.704373 178.44539,222.971759 172.392056,222.971759 C171.853985,222.971759 171.322811,223.001251 170.800065,223.058705 C168.297631,218.817532 163.677582,215.971759 158.392056,215.971759 C151.078953,215.971759 145.03982,221.419636 144.12101,228.47372 C141.604686,226.878564 138.619697,225.954815 135.418692,225.954815 C132.683302,225.954815 130.105656,226.629374 127.843411,227.821024 C124.62093,223.081512 119.207516,219.971759 113.072844,219.971759 C106.022037,219.971759 99.9239935,224.07967 97.0100461,230.048494 C95.7491067,229.318009 94.2868864,228.900211 92.7277643,228.900211 C88.5308127,228.900211 85.0360261,231.927643 84.2793957,235.932223 L64.127581,235.932223 L64.127581,279.971759 L221.127581,279.971759 L221.127581,235.932223 L198.235157,235.932223 Z" id="clouds_front" fill="#FFFFFF" mask="url(#mask-2)"></path>
                </g>
            </g>
        </g>
    </g>
</svg>