<?xml version="1.0" encoding="UTF-8" standalone="no"?>
<svg width="280px" height="280px" viewBox="0 0 280 280" version="1.1" xmlns="http://www.w3.org/2000/svg" xmlns:xlink="http://www.w3.org/1999/xlink">
    <!-- Generator: Sketch 3.8.3 (29802) - http://www.bohemiancoding.com/sketch -->
    <title>android</title>
    <desc>Created with Sketch.</desc>
    <defs>
        <path d="M140,280 C217.319865,280 280,217.319865 280,140 C280,62.680135 217.319865,0 140,0 C62.680135,0 0,62.680135 0,140 C0,217.319865 62.680135,280 140,280 Z" id="path-1"></path>
    </defs>
    <g id="Page-1" stroke="none" stroke-width="1" fill="none" fill-rule="evenodd">
        <g id="moomoo" transform="translate(-590.000000, -208.000000)">
            <g id="Post" transform="translate(391.000000, 208.000000)">
                <g id="android" transform="translate(199.000000, 0.000000)">
                    <mask id="mask-2" fill="white">
                        <use xlink:href="#path-1"></use>
                    </mask>
                    <use id="bg" fill="#D1C4E9" xlink:href="#path-1"></use>
                    <g id="nexus" mask="url(#mask-2)">
                        <g transform="translate(59.000000, 44.000000)">
                            <path d="M4,312.8 L4,22.2 C4,15.6 9.2,9.4 15.8,8.6 C30.4,6.8 57,4 85.2,4 C113.2,4 139.6,6.8 154.4,8.6 C161,9.4 166,15.6 166,22.2 L166,312.8 C166,317.2 162.8,322.8 158.6,323.8 C147.4,326.6 123.4,330.4 85.2,330.4 C47,330.4 23,326.6 11.8,323.8 C7.4,322.8 4,317.2 4,312.8 L4,312.8 Z" id="phone_2_" fill="#B39DDB"></path>
                            <path d="M2.27373675e-13,308.8 L2.27373675e-13,18.2 C2.27373675e-13,11.6 5.2,5.4 11.8,4.6 C26.4,2.8 53,0 81.2,0 C109.2,0 135.6,2.8 150.4,4.6 C157,5.4 162,11.6 162,18.2 L162,308.8 C162,313.2 158.8,318.8 154.6,319.8 C143.4,322.6 119.4,326.4 81.2,326.4 C43,326.4 19,322.6 7.8,319.8 C3.4,318.8 2.27373675e-13,313.2 2.27373675e-13,308.8 L2.27373675e-13,308.8 Z" id="phone_2_-copy" fill="#FFFFFF"></path>
                            <circle id="camera" fill="#EDEEF3" cx="81" cy="16" r="4"></circle>
                        </g>
                    </g>
                    <g id="screen" mask="url(#mask-2)">
                        <g transform="translate(71.000000, 74.000000)">
                            <rect id="Rectangle-688" fill="#EDF2F7" x="0" y="0" width="138" height="244"></rect>
                            <g id="card" stroke-width="1" fill="none" transform="translate(16.000000, 40.000000)">
                                <rect id="shadow" fill="#DCE4ED" x="4" y="4" width="107" height="40"></rect>
                                <rect id="base" fill="#FFFFFF" x="0" y="0" width="107" height="40"></rect>
                                <path d="M20,32 C26.627417,32 32,26.627417 32,20 C32,13.372583 26.627417,8 20,8 C13.372583,8 8,13.372583 8,20 C8,26.627417 13.372583,32 20,32 Z" id="pic" fill="#B3E5FC"></path>
                                <rect id="line" fill="#EDF2F7" x="40" y="8" width="58" height="8" rx="2"></rect>
                                <rect id="line" fill="#EDF2F7" x="40" y="24" width="41" height="8" rx="2"></rect>
                            </g>
                            <g id="card-copy-4" stroke-width="1" fill="none" transform="translate(16.000000, 88.000000)">
                                <rect id="shadow" fill="#DCE4ED" x="4" y="4" width="107" height="40"></rect>
                                <rect id="base" fill="#FFFFFF" x="0" y="0" width="107" height="40"></rect>
                                <path d="M20,32 C26.627417,32 32,26.627417 32,20 C32,13.372583 26.627417,8 20,8 C13.372583,8 8,13.372583 8,20 C8,26.627417 13.372583,32 20,32 Z" id="pic" fill="#D1C4E9"></path>
                                <rect id="line" fill="#EDF2F7" x="40" y="8" width="58" height="8" rx="2"></rect>
                                <rect id="line" fill="#EDF2F7" x="40" y="24" width="41" height="8" rx="2"></rect>
                            </g>
                            <g id="card-copy-5" stroke-width="1" fill="none" transform="translate(16.000000, 136.000000)">
                                <rect id="shadow" fill="#DCE4ED" x="4" y="4" width="107" height="40"></rect>
                                <rect id="base" fill="#FFFFFF" x="0" y="0" width="107" height="40"></rect>
                                <path d="M20,32 C26.627417,32 32,26.627417 32,20 C32,13.372583 26.627417,8 20,8 C13.372583,8 8,13.372583 8,20 C8,26.627417 13.372583,32 20,32 Z" id="pic" fill="#C8E6C9"></path>
                                <rect id="line" fill="#EDF2F7" x="40" y="8" width="58" height="8" rx="2"></rect>
                                <rect id="line" fill="#EDF2F7" x="40" y="24" width="41" height="8" rx="2"></rect>
                            </g>
                            <g id="card-copy-6" stroke-width="1" fill="none" transform="translate(16.000000, 184.000000)">
                                <rect id="shadow" fill="#DCE4ED" x="4" y="4" width="107" height="40"></rect>
                                <rect id="base" fill="#FFFFFF" x="0" y="0" width="107" height="40"></rect>
                                <path d="M20,32 C26.627417,32 32,26.627417 32,20 C32,13.372583 26.627417,8 20,8 C13.372583,8 8,13.372583 8,20 C8,26.627417 13.372583,32 20,32 Z" id="pic" fill="#F8BBD0"></path>
                                <rect id="line" fill="#EDF2F7" x="40" y="8" width="58" height="8" rx="2"></rect>
                            </g>
                            <g id="headers" stroke-width="1" fill="none">
                                <rect id="Rectangle-439-Copy" fill="#DCE4ED" x="0" y="2" width="138" height="24"></rect>
                                <rect id="Rectangle-439" fill="#7FD2EF" x="0" y="0" width="138" height="24"></rect>
                            </g>
                        </g>
                    </g>
                </g>
            </g>
        </g>
    </g>
</svg>