<?xml version="1.0" encoding="UTF-8" standalone="no"?>
<svg width="282px" height="282px" viewBox="0 0 282 282" version="1.1" xmlns="http://www.w3.org/2000/svg" xmlns:xlink="http://www.w3.org/1999/xlink">
    <!-- Generator: Sketch 3.8.3 (29802) - http://www.bohemiancoding.com/sketch -->
    <title>locust</title>
    <desc>Created with Sketch.</desc>
    <defs>
        <path d="M282,141 C282,63.1278503 218.87215,0 141,0 C63.1278503,0 0,63.1278503 0,141 C0,218.87215 63.1278503,282 141,282 C218.87215,282 282,218.87215 282,141 Z" id="path-1"></path>
        <path d="M84,39.8136593 C84,39.8136593 73.4600761,36.348572 71.6942257,29.5655237 C69.9283752,22.7824755 70.4518952,0 70.4518952,0 L13.5481048,0 C13.5481048,0 14.0716248,22.7824755 12.3057743,29.5655237 C10.5399239,36.348572 0,39.8136593 0,39.8136593 L42,64 L84,39.8136593 L84,39.8136593 Z" id="path-3"></path>
    </defs>
    <g id="Page-1" stroke="none" stroke-width="1" fill="none" fill-rule="evenodd">
        <g id="moomoo" transform="translate(-579.000000, -2701.000000)">
            <g id="post-copy-2" transform="translate(400.000000, 2701.000000)">
                <g id="locust" transform="translate(179.000000, 0.000000)">
                    <g id="Scalability-fixed_radius-2">
                        <g id="Page-1">
                            <g id="Scalability-fixed_radius-2">
                                <g id="Icon">
                                    <g id="mask-2" fill="#FFFFFF">
                                        <path d="M141,282 C218.87215,282 282,218.87215 282,141 C282,63.1278503 218.87215,0 141,0 C63.1278503,0 0,63.1278503 0,141 C0,218.87215 63.1278503,282 141,282 L141,282 Z" id="path-1"></path>
                                    </g>
                                    <g id="bg" fill="#7FD2EF">
                                        <path d="M141,282 C218.87215,282 282,218.87215 282,141 C282,63.1278503 218.87215,0 141,0 C63.1278503,0 0,63.1278503 0,141 C0,218.87215 63.1278503,282 141,282 L141,282 Z" id="path-1"></path>
                                    </g>
                                    <g id="Pied-Clipped">
                                        <mask id="mask-2" fill="white">
                                            <use xlink:href="#path-1"></use>
                                        </mask>
                                        <g id="path-1"></g>
                                        <g id="Pied" mask="url(#mask-2)">
                                            <g transform="translate(100.000000, 241.000000)" id="Group">
                                                <g>
                                                    <g id="mask-4" fill="#FFFFFF">
                                                        <path d="M84,39.8136593 C84,39.8136593 73.4600761,36.348572 71.6942257,29.5655237 C69.9283752,22.7824755 70.4518952,0 70.4518952,0 L13.5481048,0 C13.5481048,0 14.0716248,22.7824755 12.3057743,29.5655237 C10.5399239,36.348572 0,39.8136593 0,39.8136593 L42,64 L84,39.8136593 L84,39.8136593 Z" id="path-3"></path>
                                                    </g>
                                                    <g id="Path-2" fill="#EDEEF3">
                                                        <path d="M84,39.8136593 C84,39.8136593 73.4600761,36.348572 71.6942257,29.5655237 C69.9283752,22.7824755 70.4518952,0 70.4518952,0 L13.5481048,0 C13.5481048,0 14.0716248,22.7824755 12.3057743,29.5655237 C10.5399239,36.348572 0,39.8136593 0,39.8136593 L42,64 L84,39.8136593 L84,39.8136593 Z" id="path-3"></path>
                                                    </g>
                                                    <g id="Rectangle-6-Clipped">
                                                        <mask id="mask-4" fill="white">
                                                            <use xlink:href="#path-3"></use>
                                                        </mask>
                                                        <g id="path-3"></g>
                                                        <rect id="Rectangle-6" fill="#CBD4D8" mask="url(#mask-4)" x="8" y="-2" width="65" height="9"></rect>
                                                    </g>
                                                </g>
                                            </g>
                                        </g>
                                    </g>
                                    <g id="Main" transform="translate(0.000000, 36.769231)">
                                        <g id="Screen-2">
                                            <g id="Base">
                                                <path d="M9.9950744,0.230769231 L272.004926,0.230769231 C277.525053,0.230769231 282,4.71369855 282,10.2294668 L282,176.230769 L0,176.230769 L0,10.2294668 C0,4.70733863 4.48648483,0.230769231 9.9950744,0.230769231 L9.9950744,0.230769231 Z" id="Haut-ecran" fill="#2A414E"></path>
                                                <rect id="Rectangle-23" fill="#314D5C" x="12" y="12.230769" width="258" height="152"></rect>
                                                <path d="M282,176.230769 L282,194.240711 C282,199.758068 277.513515,204.230769 272.004926,204.230769 L9.9950744,204.230769 C4.47494724,204.230769 0,199.763125 0,194.240711 L0,176.230769 L282,176.230769 L282,176.230769 Z" id="Rectangle-24" fill="#EDEEF3"></path>
                                            </g>
                                            <g id="Inside-screen" transform="translate(33.000000, 36.000000)">
                                                <g id="graph" transform="translate(29.000000, 2.000000)">
                                                    <polyline id="Path-3" stroke="#446373" stroke-width="6.02564103" points="9.59067732 89.3956778 49.9616999 55.9608671 105.189289 48.7171522 145.649348 14.7801767"></polyline>
                                                    <g id="round-small" transform="translate(0.000000, 80.230769)">
                                                        <circle id="Oval-11" fill="#7FD2EF" cx="9" cy="9" r="9"></circle>
                                                        <circle id="Oval-12" fill="#FFFFFF" cx="9" cy="9" r="3"></circle>
                                                    </g>
                                                    <g id="round-small-2" transform="translate(40.072200, 46.379488)">
                                                        <ellipse id="Oval-11" fill="#7FD2EF" cx="9.9278" cy="9.851281" rx="9" ry="9"></ellipse>
                                                        <ellipse id="Oval-12" fill="#FFFFFF" cx="9.9278" cy="9.851281" rx="3" ry="3"></ellipse>
                                                    </g>
                                                    <g id="round-small-3" transform="translate(95.072200, 38.379488)">
                                                        <circle id="Oval-11" fill="#7FD2EF" cx="9.9278" cy="9.851281" r="9"></circle>
                                                        <circle id="Oval-12" fill="#FFFFFF" cx="9.9278" cy="9.851281" r="3"></circle>
                                                    </g>
                                                    <g id="round-small-4" transform="translate(130.632456, 0.439744)">
                                                        <circle id="Oval-11" fill="#7FD2EF" cx="14.367544" cy="14.791025" r="14"></circle>
                                                        <circle id="Oval-12" fill="#FFFFFF" cx="14.367544" cy="14.791025" r="5"></circle>
                                                    </g>
                                                </g>
                                                <g id="legend-left" transform="translate(0.333333, 0.564103)" fill="#436373">
                                                    <rect id="Rectangle" x="0.666667" y="0.666666" width="84" height="8" rx="2"></rect>
                                                    <rect id="Rectangle-Copy" x="0.666667" y="18.666666" width="50" height="8" rx="2"></rect>
                                                </g>
                                                <g id="legend-right" transform="translate(138.333333, 79.564103)">
                                                    <rect id="Rectangle" fill="#436373" x="23.666667" y="0.666666" width="53.025641" height="8" rx="2"></rect>
                                                    <rect id="Rectangle-410" fill="#7FD2EF" x="0.666667" y="7.666666" width="13" height="13" rx="2"></rect>
                                                    <rect id="Rectangle-Copy" fill="#436373" x="23.666667" y="18.666666" width="24" height="8" rx="2"></rect>
                                                </g>
                                            </g>
                                        </g>
                                    </g>
                                </g>
                            </g>
                        </g>
                    </g>
                </g>
            </g>
        </g>
    </g>
</svg>