<svg xmlns="http://www.w3.org/2000/svg" width="100" height="100" viewBox="0 0 100 100"><path fill="#E2574C" d="M50 0c27.614 0 50 22.386 50 50s-22.386 50-50 50-50-22.386-50-50 22.386-50 50-50z"/><path fill="#324D5B" d="M.645 42c-.419 2.605-.645 5.275-.645 8 0 8.698 2.225 16.875 6.131 24h87.738c3.906-7.125 6.131-15.302 6.131-24 0-2.725-.226-5.395-.645-8h-98.71z"/><path fill="#475F6C" d="M8.571 78c5.358 7.912 12.923 14.205 21.811 18h39.238c8.887-3.795 16.452-10.088 21.811-18h-82.86z"/><path fill="#3E5765" d="M65 42l-20 32h18l20-32h-18zm-16 0l-20 32h8l20-32h-8z"/><path fill="#FAFAFA" d="M37 37v10l-10 16-1-10 9-16h2z"/><path fill="#EDEDED" d="M21 37h16l-10 16h-16l10-16z"/><path fill="#BEBEBE" d="M27 53h-16v10h16v-10z"/><path fill="#FAFAFA" d="M69 37v10l-10 16-1-10 9-16h2z"/><path fill="#EDEDED" d="M53 37h16l-10 16h-16l10-16z"/><path fill="#BEBEBE" d="M59 53h-16v10h16v-10z"/><path fill="#7D8D95" d="M21 56.757c-.413-.458-1.039-.757-1.75-.757-1.242 0-2.25.896-2.25 2s1.008 2 2.25 2c.711 0 1.337-.299 1.75-.756-.58-.186-1-.666-1-1.244s.42-1.059 1-1.243zm31 1.243c0-.578.42-1.059.999-1.243-.412-.458-1.038-.757-1.749-.757-1.242 0-2.25.896-2.25 2s1.008 2 2.25 2c.711 0 1.337-.299 1.749-.756-.579-.185-.999-.666-.999-1.244zm10.639-19h-6.727c-.504 0-.973.254-1.237.672l-6.548 9.178c-.596.939.101 2.15 1.237 2.15h6.727c.505 0 .973-.254 1.237-.672l6.548-9.178c.596-.939-.101-2.15-1.237-2.15zm-8.775 10c-.269.553-.873 1-1.351 1s-.647-.447-.379-1 .873-1 1.351-1 .648.447.379 1zm-23.225-10h-6.727c-.504 0-.973.254-1.237.672l-6.548 9.178c-.596.939.101 2.15 1.237 2.15h6.727c.505 0 .973-.254 1.237-.672l6.548-9.178c.596-.939-.101-2.15-1.237-2.15zm-8.775 10c-.269.553-.873 1-1.351 1s-.647-.447-.379-1 .873-1 1.351-1 .648.447.379 1z"/><path fill="#EFC75E" d="M75 54h24.826c.104-1.321.174-2.652.174-4 0-9.168-2.479-17.754-6.787-25.141l-18.213 29.141z"/><path d="M6.131 74c.753 1.373 1.565 2.709 2.44 4h82.859c.874-1.291 1.687-2.627 2.439-4h-87.738zm24.25 22c6.024 2.572 12.654 4 19.619 4s13.595-1.428 19.619-4h-39.238z" fill="#283E49"/><g fill="#394C56"><path d="M20.949 90.682c.647-.71 1.051-1.646 1.051-2.682 0-2.209-1.791-4-4-4-1.284 0-2.413.615-3.146 1.556 1.889 1.867 3.93 3.577 6.095 5.126z"/><circle cx="50" cy="88" r="4"/><circle cx="34" cy="88" r="4"/><path d="M82 84c-2.209 0-4 1.791-4 4 0 1.036.404 1.972 1.051 2.682 2.165-1.549 4.206-3.259 6.095-5.126-.733-.941-1.863-1.556-3.146-1.556z"/><circle cx="66" cy="88" r="4"/></g><g fill="#70838D"><path d="M20.329 90.24c1.008-.725 1.671-1.902 1.671-3.24 0-2.209-1.791-4-4-4-1.544 0-2.869.885-3.536 2.166 1.82 1.839 3.78 3.535 5.865 5.074z"/><circle cx="34" cy="87" r="4"/><path d="M85.535 85.166c-.666-1.281-1.991-2.166-3.535-2.166-2.209 0-4 1.791-4 4 0 1.338.663 2.515 1.671 3.24 2.085-1.539 4.046-3.235 5.864-5.074z"/><circle cx="66" cy="87" r="4"/><circle cx="50" cy="87" r="4"/></g><path fill="#405561" d="M89.993 80c.493-.656.976-1.319 1.437-2h-82.859c.461.681.944 1.344 1.437 2h79.985z"/><path fill="#CBA950" d="M75 93.294c13.853-8.017 23.494-22.481 24.826-39.294h-24.826v39.294z"/></svg>